<svg width="40" height="40" viewBox="0 0 40 40" fill="none" xmlns="http://www.w3.org/2000/svg">
<g id="avatar">
<path id="Shape" fill-rule="evenodd" clip-rule="evenodd" d="M3.52246 20C3.52246 10.8997 10.8997 3.52246 20 3.52246C29.1002 3.52246 36.4776 10.8997 36.4776 20C36.4776 29.1002 29.1002 36.4776 20 36.4776C10.8997 36.4776 3.52246 29.1002 3.52246 20ZM20 5.02246C11.7282 5.02246 5.02246 11.7282 5.02246 20C5.02246 24.0638 6.64093 27.7496 9.26845 30.448C11.5354 26.9217 15.4947 24.5837 20.001 24.5837C24.5068 24.5837 28.4656 26.9212 30.7327 30.4468C33.3596 27.7485 34.9776 24.0632 34.9776 20C34.9776 11.7282 28.2718 5.02246 20 5.02246ZM29.6135 31.4855C27.6376 28.2449 24.0712 26.0837 20.001 26.0837C15.9303 26.0837 12.3635 28.2454 10.3878 31.4866C12.9889 33.6657 16.3413 34.9776 20 34.9776C23.6593 34.9776 27.0121 33.6652 29.6135 31.4855ZM14.25 17.347C14.25 14.1714 16.8244 11.597 20 11.597C23.1756 11.597 25.75 14.1714 25.75 17.347C25.75 20.5226 23.1756 23.097 20 23.097C16.8244 23.097 14.25 20.5226 14.25 17.347ZM20 13.097C17.6528 13.097 15.75 14.9998 15.75 17.347C15.75 19.6942 17.6528 21.597 20 21.597C22.3472 21.597 24.25 19.6942 24.25 17.347C24.25 14.9998 22.3472 13.097 20 13.097Z" fill="#333333"/>
</g>
</svg>
