<svg width="20" height="20" viewBox="0 0 20 20" fill="none" xmlns="http://www.w3.org/2000/svg">
<g id="cross">
<path id="Shape" fill-rule="evenodd" clip-rule="evenodd" d="M15.6969 5.36346C15.9898 5.07057 15.9898 4.59569 15.6969 4.3028C15.404 4.00991 14.9291 4.00991 14.6363 4.3028L9.99992 8.93914L5.36358 4.3028C5.07069 4.00991 4.59582 4.00991 4.30292 4.3028C4.01003 4.59569 4.01003 5.07057 4.30292 5.36346L8.93926 9.9998L4.30292 14.6361C4.01003 14.929 4.01003 15.4039 4.30292 15.6968C4.59582 15.9897 5.07069 15.9897 5.36358 15.6968L9.99992 11.0605L14.6363 15.6968C14.9292 15.9897 15.404 15.9897 15.6969 15.6968C15.9898 15.4039 15.9898 14.929 15.6969 14.6361L11.0606 9.9998L15.6969 5.36346Z" fill="#A2A8B1"/>
</g>
</svg>
