<svg width="24" height="24" viewBox="0 0 24 24" fill="none" xmlns="http://www.w3.org/2000/svg">
<g id="icons/merchants">
<path id="Vector 415" d="M7 20.3334C7.57671 21.1684 9.66645 22.6667 11.6664 22.6667C13.6664 22.6667 15.0049 22.4308 16.6363 21M7 20.3334C5.31981 17.9005 4.06297 14.3095 5.99347 10.4102C6.22933 9.93378 7.32977 10.3297 7.70563 10.7056V10.7056C8.2673 11.2673 8.82115 10.3096 8.81015 9.51534C8.77125 6.7056 9.28724 3.14915 11.3454 1.33465C11.8127 0.922661 12.4943 1.21904 12.6798 1.81377C14.1117 6.40403 14.9311 7.00345 18.3332 11.3334C20.5046 14.0971 18.8811 19.0312 16.6363 21M7 20.3334C6.79874 19.5556 6.86648 18.1334 7.66648 17.3334C8.66648 16.3334 10.9998 17.6667 11.6665 15.6667C12.3331 13.6667 10.6665 9.33335 11.9998 10C16.0548 12.0275 18.3332 17 16.6363 21" stroke="#333333" stroke-width="1.5" stroke-linecap="round"/>
</g>
</svg>
