<svg width="32" height="32" viewBox="0 0 32 32" fill="none" xmlns="http://www.w3.org/2000/svg">
<g id="Frame 33694">
<path d="M0 4C0 1.79086 1.79086 0 4 0H28C30.2091 0 32 1.79086 32 4V28C32 30.2091 30.2091 32 28 32H4C1.79086 32 0 30.2091 0 28V4Z" fill="#F2F4F6"/>
<g id="Group">
<g id="Group_2">
<path id="Vector" d="M19.923 24.5163H12.4453C9.99865 24.5163 8 22.4995 8 20.0308V12.4855C8 10.0167 9.99865 8 12.4453 8H19.923C22.3696 8 24.3683 10.0167 24.3683 12.4855V20.0308C24.3683 22.4995 22.3696 24.5163 19.923 24.5163ZM12.4453 8.83451C10.4466 8.83451 8.82703 10.4687 8.82703 12.4855V20.0308C8.82703 22.0475 10.4466 23.6818 12.4453 23.6818H19.923C21.9217 23.6818 23.5413 22.0475 23.5413 20.0308V12.4855C23.5413 10.4687 21.9217 8.83451 19.923 8.83451H12.4453Z" fill="#333333" stroke="#333333" stroke-width="0.5"/>
</g>
<g id="Group_3">
<path id="Vector_2" d="M16.2013 21.3869C13.3756 21.3869 11.1013 19.092 11.1013 16.2755C11.1013 13.4243 13.3756 11.1294 16.2013 11.1294C18.9926 11.1294 21.2669 13.4243 21.2669 16.2407C21.2669 19.092 18.9926 21.3869 16.2013 21.3869ZM16.2013 11.9639C13.8581 11.9639 11.9628 13.8763 11.9628 16.2407C11.9628 18.6052 13.8581 20.5176 16.2013 20.5176C18.5446 20.5176 20.4399 18.6052 20.4399 16.2407C20.4399 13.9111 18.5446 11.9639 16.2013 11.9639Z" fill="#333333" stroke="#333333" stroke-width="0.5"/>
</g>
<path id="Vector_3" d="M21.9906 11.3728C21.9906 11.79 21.646 12.1377 21.2325 12.1377C20.819 12.1377 20.4744 11.79 20.4744 11.3728C20.4744 10.9555 20.819 10.6078 21.2325 10.6078C21.646 10.6078 21.9906 10.9555 21.9906 11.3728Z" fill="#333333" stroke="#333333" stroke-width="0.5"/>
</g>
</g>
</svg>
