<svg width="93" height="34" viewBox="0 0 93 34" fill="none" xmlns="http://www.w3.org/2000/svg">
<g id="Layer_1" clip-path="url(#clip0_1290_26302)">
<g id="Group">
<path id="Vector" d="M22.7182 29.1073H2.49532C1.1175 29.1073 0 27.9832 0 26.6032V2.50411C0 1.12408 1.12013 0 2.49532 0H14.8746C16.2525 0 17.37 1.12408 17.37 2.50411V10.6603C17.37 11.2909 16.8598 11.8028 16.2314 11.8028C15.603 11.8028 15.0929 11.2909 15.0929 10.6603V2.50411C15.0929 2.38273 14.9956 2.2851 14.8746 2.2851H2.49532C2.37437 2.2851 2.27708 2.38273 2.27708 2.50411V26.6006C2.27708 26.7219 2.37437 26.8196 2.49532 26.8196H22.7182C22.8392 26.8196 22.9364 26.7219 22.9364 26.6006V17.0591C22.9364 16.9377 22.8392 16.8401 22.7182 16.8401H10.0812C9.96025 16.8401 9.86296 16.9377 9.86296 17.0591V23.0964C9.86296 23.727 9.35285 24.2389 8.72442 24.2389C8.09599 24.2389 7.58588 23.727 7.58588 23.0964V17.0591C7.58588 15.6764 8.70601 14.555 10.0812 14.555H22.7182C24.0934 14.555 25.2135 15.6791 25.2135 17.0591V26.6006C25.2135 27.9832 24.0934 29.1047 22.7182 29.1047V29.1073Z" fill="#333333"/>
<path id="Vector_2" d="M8.85063 6.96349C9.63191 6.96349 10.2653 6.32791 10.2653 5.54388C10.2653 4.75985 9.63191 4.12427 8.85063 4.12427C8.06936 4.12427 7.436 4.75985 7.436 5.54388C7.436 6.32791 8.06936 6.96349 8.85063 6.96349Z" fill="#FF9D00"/>
</g>
<g id="Group_2">
<path id="Vector_3" d="M30.8983 29.1152C30.3882 29.1152 30.1332 28.8381 30.1332 28.2866V15.431C30.1332 14.8795 30.3882 14.6024 30.8983 14.6024H35.0502C36.2203 14.6024 37.1616 14.7581 37.8716 15.0695C38.5815 15.3808 39.0995 15.8083 39.4308 16.3545C39.7621 16.9007 39.9278 17.5393 39.9278 18.2728C39.9278 18.7557 39.8279 19.2096 39.628 19.6317C39.4282 20.0539 39.16 20.4207 38.8234 20.7294C38.4868 21.0408 38.1108 21.273 37.698 21.4234V21.5052C38.2476 21.616 38.734 21.8403 39.1547 22.1781C39.5754 22.5158 39.9041 22.9222 40.146 23.3919C40.3879 23.8616 40.5089 24.3655 40.5089 24.9065C40.5089 25.7904 40.3196 26.5477 39.9409 27.1757C39.5623 27.8037 38.9943 28.284 38.2371 28.6165C37.4798 28.9489 36.5148 29.1152 35.3447 29.1152H30.9036H30.8983ZM33.3358 20.4075H34.8451C35.4367 20.4075 35.889 20.2545 36.1993 19.951C36.5095 19.6476 36.6647 19.2808 36.6647 18.8533C36.6647 18.3414 36.52 17.9588 36.2308 17.7029C35.9416 17.4469 35.4946 17.3203 34.8872 17.3203H33.3384V20.4102L33.3358 20.4075ZM33.3358 26.4H35.442C36.0073 26.4 36.4464 26.2548 36.7646 25.9646C37.0827 25.6743 37.2405 25.2601 37.2405 24.7218C37.2405 24.1835 37.0564 23.7798 36.6936 23.508C36.3281 23.2388 35.8022 23.1043 35.1133 23.1043H33.3358V26.4Z" fill="#333333"/>
<path id="Vector_4" d="M47.3007 29.2787C45.4285 29.2787 44.0612 28.7774 43.1988 27.7747C42.3389 26.772 41.9077 25.4341 41.9077 23.7639C41.9077 22.3944 42.1207 21.2967 42.5493 20.4681C42.9753 19.6396 43.5695 19.038 44.3268 18.6633C45.0841 18.2912 45.9518 18.1039 46.9299 18.1039C48.0185 18.1039 48.8862 18.3493 49.533 18.8401C50.1799 19.3309 50.6505 19.9747 50.9477 20.769C51.2448 21.5632 51.392 22.4234 51.392 23.3496C51.392 23.529 51.3263 23.7216 51.1948 23.9301C51.0634 24.1386 50.9082 24.3127 50.7294 24.4578C50.5506 24.603 50.385 24.6768 50.2325 24.6768H45.0472C45.0735 25.5054 45.3128 26.0753 45.7598 26.3867C46.2068 26.6981 46.7695 26.8538 47.4426 26.8538C47.9107 26.8538 48.3288 26.7878 48.6916 26.6559C49.0571 26.5239 49.3674 26.3973 49.6224 26.2732C49.8775 26.1492 50.0721 26.0859 50.2114 26.0859C50.3508 26.0859 50.4875 26.1888 50.6242 26.3973C50.761 26.6057 50.8793 26.8353 50.9766 27.0912C51.0739 27.3472 51.1212 27.5451 51.1212 27.6823C51.1212 27.8908 50.9871 28.0913 50.7189 28.2839C50.4507 28.4765 50.1089 28.6507 49.6961 28.8011C49.2832 28.9541 48.8625 29.0702 48.4366 29.1547C48.0106 29.2391 47.632 29.2787 47.3007 29.2787ZM45.0078 22.6239H48.4786C48.4786 21.9326 48.3393 21.4102 48.0658 21.0592C47.7897 20.7056 47.3716 20.5315 46.8063 20.5315C46.5592 20.5315 46.2962 20.579 46.0228 20.6766C45.7467 20.7742 45.5127 20.9695 45.3207 21.2677C45.1288 21.5658 45.0236 22.017 45.0104 22.6266L45.0078 22.6239Z" fill="#333333"/>
<path id="Vector_5" d="M58.2312 29.2787C56.359 29.2787 54.9917 28.7774 54.1293 27.7747C53.2694 26.772 52.8382 25.4341 52.8382 23.7639C52.8382 22.3944 53.0512 21.2967 53.4798 20.4681C53.9058 19.6396 54.5 19.038 55.2573 18.6633C56.0146 18.2912 56.8823 18.1039 57.8604 18.1039C58.949 18.1039 59.8167 18.3493 60.4635 18.8401C61.1104 19.3309 61.581 19.9747 61.8782 20.769C62.1753 21.5632 62.3225 22.4234 62.3225 23.3496C62.3225 23.529 62.2568 23.7216 62.1253 23.9301C61.9939 24.1386 61.8387 24.3127 61.6599 24.4578C61.4811 24.603 61.3155 24.6768 61.163 24.6768H55.9777C56.004 25.5054 56.2433 26.0753 56.6903 26.3867C57.1373 26.6981 57.7 26.8538 58.3731 26.8538C58.8412 26.8538 59.2593 26.7878 59.6221 26.6559C59.9876 26.5239 60.2979 26.3973 60.5529 26.2732C60.808 26.1492 61.0026 26.0859 61.1419 26.0859C61.2813 26.0859 61.418 26.1888 61.5547 26.3973C61.6915 26.6057 61.8098 26.8353 61.9071 27.0912C62.0044 27.3472 62.0517 27.5451 62.0517 27.6823C62.0517 27.8908 61.9176 28.0913 61.6494 28.2839C61.3812 28.4765 61.0394 28.6507 60.6266 28.8011C60.2137 28.9541 59.793 29.0702 59.3671 29.1547C58.9411 29.2365 58.5625 29.2787 58.2312 29.2787ZM55.9383 22.6239H59.4091C59.4091 21.9326 59.2724 21.4102 58.9963 21.0592C58.7202 20.7056 58.2995 20.5315 57.7368 20.5315C57.4897 20.5315 57.2267 20.579 56.9506 20.6766C56.6745 20.7742 56.4405 20.9695 56.2486 21.2677C56.0566 21.5658 55.9514 22.017 55.9383 22.6266V22.6239Z" fill="#333333"/>
<path id="Vector_6" d="M65.5646 33.3845C65.1229 33.3845 64.8021 33.3264 64.6049 33.2077C64.4051 33.089 64.3051 32.9201 64.3051 32.7011V21.8772C64.3051 21.2703 64.2867 20.7821 64.2525 20.4154C64.2184 20.0486 64.1842 19.761 64.15 19.5552C64.1158 19.3467 64.0974 19.1673 64.0974 19.0169C64.0974 18.8665 64.1973 18.7398 64.3972 18.6448C64.597 18.5472 64.8389 18.4759 65.1203 18.4258C65.4016 18.3783 65.6698 18.344 65.9249 18.3229C66.1799 18.3018 66.3613 18.2912 66.4718 18.2912C66.6374 18.2912 66.761 18.3308 66.8425 18.4047C66.924 18.4812 66.9977 18.6158 67.0608 18.8084C67.1239 19.001 67.187 19.2913 67.258 19.6792C67.4236 19.3757 67.6471 19.1066 67.9285 18.8717C68.2098 18.6369 68.5385 18.4495 68.9093 18.3123C69.28 18.1751 69.6797 18.1039 70.1083 18.1039C70.8787 18.1039 71.5623 18.3176 72.154 18.7477C72.7456 19.1752 73.2136 19.8085 73.5581 20.6449C73.9025 21.4814 74.0734 22.4999 74.0734 23.7032C74.0734 24.822 73.8999 25.8009 73.5581 26.6374C73.2136 27.4738 72.7088 28.123 72.0383 28.5874C71.3704 29.0518 70.5605 29.2813 69.6113 29.2813C69.2669 29.2813 68.9566 29.2497 68.6805 29.189C68.4044 29.1257 68.1599 29.0439 67.9469 28.941C67.7339 28.838 67.5498 28.7378 67.4 28.6401V32.7037C67.4 32.9254 67.3 33.0942 67.1002 33.2103C66.9004 33.3264 66.5796 33.3871 66.1405 33.3871H65.562L65.5646 33.3845ZM68.9539 26.8538C69.6297 26.8538 70.1267 26.5872 70.4527 26.0569C70.7761 25.5239 70.9392 24.7402 70.9392 23.7032C70.9392 22.6662 70.7972 21.9273 70.5158 21.4022C70.2345 20.8771 69.7954 20.6133 69.2037 20.6133C68.7909 20.6133 68.436 20.7373 68.1388 20.9853C67.8417 21.2334 67.5972 21.5183 67.4052 21.835V26.458C67.584 26.5556 67.8023 26.6453 68.0573 26.7271C68.3124 26.8089 68.6121 26.8511 68.9566 26.8511L68.9539 26.8538Z" fill="#333333"/>
<path id="Vector_7" d="M79.1377 29.2788C78.1175 29.2788 77.3602 29.0123 76.8659 28.4819C76.3689 27.9489 76.1217 27.123 76.1217 26.0042V18.914C76.1217 18.6924 76.2217 18.5235 76.4215 18.4074C76.6213 18.2913 76.9421 18.2306 77.3812 18.2306H77.9597C78.4014 18.2306 78.7196 18.2886 78.9194 18.4074C79.1193 18.5261 79.2192 18.695 79.2192 18.914V25.5477C79.2192 25.9197 79.306 26.2152 79.4769 26.429C79.6478 26.6427 79.9344 26.7509 80.3341 26.7509C80.5681 26.7509 80.8021 26.6981 81.0361 26.5952C81.2701 26.4923 81.4884 26.3498 81.6882 26.1704C81.8881 25.991 82.0432 25.7825 82.1536 25.5477V18.914C82.1536 18.6924 82.2535 18.5235 82.4534 18.4074C82.6532 18.2913 82.974 18.2306 83.4131 18.2306H83.9916C84.4333 18.2306 84.7515 18.2886 84.9513 18.4074C85.1512 18.5261 85.2511 18.695 85.2511 18.914V25.5081C85.2511 26.1176 85.2695 26.6005 85.3037 26.9594C85.3379 27.3182 85.372 27.6058 85.4062 27.8196C85.4404 28.0333 85.4588 28.218 85.4588 28.3684C85.4588 28.5346 85.3589 28.6692 85.1591 28.7721C84.9592 28.875 84.7173 28.9516 84.436 28.9991C84.1546 29.0466 83.8838 29.0809 83.6314 29.102C83.3763 29.1231 83.1949 29.1336 83.0844 29.1336C82.9188 29.1336 82.7952 29.0967 82.7137 29.0202C82.6322 28.9436 82.5612 28.8012 82.506 28.5953C82.4508 28.3869 82.3824 28.0913 82.2982 27.7035C82.1063 27.9673 81.846 28.218 81.5226 28.4608C81.1991 28.7035 80.8337 28.8988 80.4287 29.0518C80.0212 29.2049 79.5926 29.2788 79.1377 29.2788Z" fill="#333333"/>
<path id="Vector_8" d="M90.7492 29.2789C90.0892 29.2789 89.5344 29.1601 89.0874 28.9253C88.6404 28.6904 88.3065 28.3421 88.0856 27.8777C87.8647 27.416 87.7543 26.8434 87.7543 26.1679V14.1645C87.7543 13.9428 87.8542 13.774 88.0541 13.6579C88.2539 13.5418 88.5747 13.4811 89.0138 13.4811H89.5923C90.034 13.4811 90.3522 13.5391 90.552 13.6579C90.7518 13.7766 90.8518 13.9455 90.8518 14.1645V25.962C90.8518 26.2655 90.9043 26.4845 91.0069 26.6138C91.1094 26.7457 91.2935 26.8117 91.5538 26.8117C91.7878 26.8117 91.9693 26.78 92.1007 26.7194C92.2322 26.6587 92.3453 26.627 92.4426 26.627C92.5241 26.627 92.6003 26.6956 92.6687 26.8355C92.7371 26.9727 92.7949 27.1442 92.8449 27.3447C92.8922 27.5453 92.9316 27.7379 92.9579 27.9252C92.9842 28.1126 93 28.2551 93 28.3501C93 28.5163 92.8817 28.672 92.6503 28.8171C92.4163 28.9622 92.127 29.0757 91.7826 29.1601C91.4381 29.2446 91.0937 29.2842 90.7492 29.2842V29.2789Z" fill="#333333"/>
</g>
</g>
<defs>
<clipPath id="clip0_1290_26302">
<rect width="93" height="33.3846" fill="white"/>
</clipPath>
</defs>
</svg>
