<svg width="22" height="18" viewBox="0 0 22 18" fill="none" xmlns="http://www.w3.org/2000/svg">
<g id="Group 4071">
<path id="Vector 412" d="M3.99988 4L4.1068 3.43866C4.37632 2.0237 5.61342 1 7.05382 1H14.9459C16.3863 1 17.6234 2.0237 17.893 3.43866L17.9999 4" stroke="#333333" stroke-width="1.5" stroke-linecap="round"/>
<path id="Rectangle 1013" d="M5.59488 6.64141C6.10638 5.63439 7.14014 5 8.26962 5H13.7305C14.8599 5 15.8937 5.63438 16.4052 6.6414L18.7149 11.1885C20.0665 13.8495 18.1331 17 15.1485 17H6.85155C3.86695 17 1.93361 13.8495 3.28523 11.1885L5.59488 6.64141Z" stroke="#333333" stroke-width="1.5"/>
<g id="Group 4070">
<circle id="Ellipse 235" cx="8.33354" cy="9.00004" r="0.666667" fill="#333333"/>
<circle id="Ellipse 238" cx="8.33354" cy="11" r="0.666667" fill="#333333"/>
<circle id="Ellipse 241" cx="8.33354" cy="13" r="0.666667" fill="#333333"/>
<circle id="Ellipse 236" cx="11.0002" cy="9.00004" r="0.666667" fill="#333333"/>
<circle id="Ellipse 239" cx="11.0002" cy="11" r="0.666667" fill="#333333"/>
<circle id="Ellipse 242" cx="11.0002" cy="13" r="0.666667" fill="#333333"/>
<circle id="Ellipse 237" cx="13.6669" cy="9.00004" r="0.666667" fill="#333333"/>
<circle id="Ellipse 240" cx="13.6669" cy="11" r="0.666667" fill="#333333"/>
<circle id="Ellipse 243" cx="13.6669" cy="13" r="0.666667" fill="#333333"/>
</g>
</g>
</svg>
