<svg width="24" height="24" viewBox="0 0 24 24" fill="none" xmlns="http://www.w3.org/2000/svg">
<g id="icons/actions">
<path id="Vector" d="M12.648 17.9241L12.6487 17.9247L16.3299 20.7915C16.7973 21.1309 17.369 21.1315 17.8579 20.7858C18.3442 20.4391 18.5209 19.9071 18.337 19.3441L18.3355 19.3393L18.3356 19.3393L17.0716 14.9841C17.0716 14.984 17.0715 14.9839 17.0715 14.9839C16.9879 14.6999 17.0976 14.3971 17.3361 14.2271L17.3365 14.2269L20.9157 11.6904C20.9159 11.6902 20.9161 11.6901 20.9163 11.6899C21.3949 11.3434 21.5685 10.8116 21.3839 10.254L21.3838 10.2539C21.1989 9.69457 20.7389 9.36366 20.1383 9.36366H15.5303C15.224 9.36366 14.9509 9.1666 14.859 8.87549L14.8589 8.87527L13.4582 4.4132C13.4582 4.41296 13.4581 4.41271 13.458 4.41247C13.2762 3.85645 12.8156 3.52352 12.2118 3.52352C11.6083 3.52352 11.1475 3.85613 10.9645 4.4178C10.9644 4.41803 10.9644 4.41827 10.9643 4.41851L9.56589 8.87486C9.56587 8.87493 9.56584 8.87501 9.56582 8.87508L9.56576 8.87526L9.42265 8.83035C9.35192 9.05794 9.13754 9.21366 8.89443 9.21366H4.28969C3.62666 9.21366 3.10729 9.585 2.90064 10.2068L12.648 17.9241ZM12.648 17.9241C12.5206 17.8261 12.3667 17.7765 12.214 17.7765C12.0622 17.7765 11.9081 17.8245 11.78 17.923L11.7792 17.9236L8.11379 20.7793C7.6443 21.1172 7.04182 21.1202 6.57158 20.7839L6.57094 20.7835C6.08477 20.4396 5.90679 19.9073 6.09645 19.3278L6.09652 19.3279L6.09783 19.3234L7.37079 14.9852C7.3708 14.9851 7.37081 14.9851 7.37082 14.985C7.45437 14.7016 7.34635 14.3971 7.10446 14.2266L3.51534 11.6934C3.51516 11.6933 3.51497 11.6932 3.51479 11.693C3.03197 11.3454 2.85841 10.8117 3.043 10.2541L12.648 17.9241ZM17.0873 22.4356H17.1794L17.1813 22.4318C17.7007 22.4132 18.2161 22.239 18.6771 21.9113C19.6493 21.2212 20.0426 20.0459 19.6794 18.9353L18.5584 15.0699L21.7411 12.8153L21.7422 12.8145C22.7207 12.1081 23.0973 10.9576 22.7206 9.82095C22.3441 8.68363 21.351 7.97469 20.1394 7.97469H16.0493L14.8004 3.99506L14.8004 3.99506L14.7999 3.99361C14.428 2.84921 13.4324 2.13564 12.2151 2.13564C10.9976 2.13564 10.0033 2.84832 9.62813 3.99892L9.62812 3.99891L9.62762 4.0005L8.37985 7.97578H4.28969C3.07805 7.97578 2.08614 8.68364 1.70849 9.82195C1.33057 10.96 1.7086 12.1104 2.69136 12.819L2.69259 12.8198L5.88365 15.072L4.75529 18.9198C4.38671 20.0471 4.77915 21.224 5.75204 21.9135C6.71024 22.5971 7.99505 22.5892 8.9625 21.8888L8.96256 21.8889L8.96672 21.8856L12.214 19.3559L15.4768 21.8955L15.4767 21.8955L15.4807 21.8984C15.9728 22.2561 16.5284 22.4356 17.0873 22.4356Z" fill="#333333" stroke="#333333" stroke-width="0.3"/>
</g>
</svg>
