<svg width="19" height="19" viewBox="0 0 19 19" fill="none" xmlns="http://www.w3.org/2000/svg">
<g id="Bold / Weather / Sun">
<g id="Vector">
<path d="M14.25 9.50004C14.25 12.1234 12.1233 14.25 9.49998 14.25C6.87663 14.25 4.74998 12.1234 4.74998 9.50004C4.74998 6.87669 6.87663 4.75004 9.49998 4.75004C12.1233 4.75004 14.25 6.87669 14.25 9.50004Z" fill="#FFD600"/>
<path fill-rule="evenodd" clip-rule="evenodd" d="M9.49998 0.989624C9.8279 0.989624 10.0937 1.25545 10.0937 1.58337V2.37504C10.0937 2.70296 9.8279 2.96879 9.49998 2.96879C9.17206 2.96879 8.90623 2.70296 8.90623 2.37504V1.58337C8.90623 1.25545 9.17206 0.989624 9.49998 0.989624ZM3.48221 3.48227C3.71409 3.2504 4.09003 3.2504 4.3219 3.48227L4.6329 3.79327C4.86477 4.02514 4.86477 4.40108 4.6329 4.63296C4.40102 4.86483 4.02508 4.86483 3.79321 4.63296L3.48221 4.32196C3.25034 4.09009 3.25034 3.71415 3.48221 3.48227ZM15.5175 3.48248C15.7494 3.71435 15.7494 4.09029 15.5175 4.32217L15.2065 4.63316C14.9747 4.86504 14.5987 4.86504 14.3669 4.63316C14.135 4.40129 14.135 4.02535 14.3669 3.79347L14.6779 3.48248C14.9097 3.2506 15.2857 3.2506 15.5175 3.48248ZM0.989563 9.50004C0.989563 9.17212 1.25539 8.90629 1.58331 8.90629H2.37498C2.7029 8.90629 2.96873 9.17212 2.96873 9.50004C2.96873 9.82796 2.7029 10.0938 2.37498 10.0938H1.58331C1.25539 10.0938 0.989563 9.82796 0.989563 9.50004ZM16.0312 9.50004C16.0312 9.17212 16.2971 8.90629 16.625 8.90629H17.4166C17.7446 8.90629 18.0104 9.17212 18.0104 9.50004C18.0104 9.82796 17.7446 10.0938 17.4166 10.0938H16.625C16.2971 10.0938 16.0312 9.82796 16.0312 9.50004ZM14.3669 14.3669C14.5987 14.135 14.9747 14.135 15.2065 14.3669L15.5175 14.6779C15.7494 14.9098 15.7494 15.2857 15.5175 15.5176C15.2857 15.7495 14.9097 15.7495 14.6779 15.5176L14.3669 15.2066C14.135 14.9747 14.135 14.5988 14.3669 14.3669ZM4.6329 14.3671C4.86477 14.599 4.86477 14.9749 4.6329 15.2068L4.3219 15.5178C4.09003 15.7497 3.71409 15.7497 3.48221 15.5178C3.25034 15.2859 3.25034 14.91 3.48221 14.6781L3.79321 14.3671C4.02508 14.1352 4.40102 14.1352 4.6329 14.3671ZM9.49998 16.0313C9.8279 16.0313 10.0937 16.2971 10.0937 16.625V17.4167C10.0937 17.7446 9.8279 18.0105 9.49998 18.0105C9.17206 18.0105 8.90623 17.7446 8.90623 17.4167V16.625C8.90623 16.2971 9.17206 16.0313 9.49998 16.0313Z" fill="#FFD600"/>
</g>
</g>
</svg>
