<svg width="32" height="33" viewBox="0 0 32 33" fill="none" xmlns="http://www.w3.org/2000/svg">
<path d="M0 4.5C0 2.29086 1.79086 0.5 4 0.5H28C30.2091 0.5 32 2.29086 32 4.5V28.5C32 30.7091 30.2091 32.5 28 32.5H4C1.79086 32.5 0 30.7091 0 28.5V4.5Z" fill="#F2F4F6"/>
<path d="M22.338 8.72834L7.30048 15.3184C6.47225 15.6813 6.51283 16.8698 7.36389 17.1754L10.3061 18.232C10.6135 18.3424 10.9554 18.2957 11.2219 18.107L17.7328 13.4976C18.2281 13.147 18.8028 13.8158 18.3817 14.2527L14.1907 18.6006C13.7623 19.045 13.8348 19.7675 14.343 20.1179L20.107 24.0921C20.7153 24.5115 21.5527 24.1492 21.6634 23.4187L23.7281 9.79409C23.8461 9.01537 23.0594 8.41221 22.338 8.72834Z" stroke="#333333" stroke-width="1.5" stroke-linecap="round"/>
</svg>
