<svg width="24" height="24" viewBox="0 0 24 24" fill="none" xmlns="http://www.w3.org/2000/svg">
<rect x="1.71387" y="3.42871" width="17.1429" height="13.7143" rx="4" stroke="#333333" stroke-width="1.4"/>
<line x1="18.1564" y1="8.41436" x2="2.41359" y2="8.41436" stroke="#333333" stroke-width="1.4" stroke-linecap="round"/>
<line x1="6.15645" y1="10.9861" x2="4.12787" y2="10.9861" stroke="#333333" stroke-width="1.4" stroke-linecap="round"/>
<path d="M6 16.7143V16.7143C6 18.3711 7.34314 19.7143 9 19.7143H16.2857C18.9587 19.7143 20.2952 19.7143 21.271 19.1012C21.7798 18.7815 22.21 18.3512 22.5298 17.8424C23.1429 16.8667 23.1429 15.5302 23.1429 12.8571V10.7143C23.1429 10.0508 23.1429 9.71904 23.1036 9.44084C22.8544 7.67568 21.4672 6.28847 19.702 6.03928C19.4238 6 19.0921 6 18.4286 6V6" stroke="#333333" stroke-width="1.4"/>
<path d="M22.543 10.8857L18.8572 10.8857" stroke="#333333" stroke-width="1.4" stroke-linecap="round"/>
</svg>
