<svg width="134" height="20" viewBox="0 0 134 20" fill="none" xmlns="http://www.w3.org/2000/svg">
<path d="M0.320068 19.0149H15.215C21.0434 19.0149 22.8423 16.6539 22.8423 13.628V13.3822C22.8423 10.2332 20.2519 9.15121 18.405 8.88043C19.7482 8.68398 21.8589 7.62583 21.8589 5.166V4.99398C21.8589 2.70618 20.2999 0.714111 15.191 0.714111H0.320068V19.0149ZM13.3921 4.99398C14.7353 4.99398 15.191 5.51058 15.191 6.29796V6.34681C15.191 7.10923 14.7592 7.65078 13.3921 7.65078H6.79614V4.99398H13.3921ZM13.8718 11.611C15.5988 11.611 15.8865 12.2508 15.8865 12.9639V13.0621C15.8865 13.7512 15.5988 14.5381 13.8718 14.5381H6.79614V11.611H13.8718Z" fill="#333333"/>
<path d="M25.2986 0.714111V19.0149H43.2876V14.5381H31.7506V12.0294H42.7599V7.47823H31.7506V5.14158H43.1197V0.714111H25.2986Z" fill="#333333"/>
<path d="M46.2952 0.714111V19.0149H64.2841V14.5381H52.7471V12.0294H63.7565V7.47823H52.7471V5.14158H64.1163V0.714111H46.2952Z" fill="#333333"/>
<path d="M80.3155 13.5543C86.8877 13.5543 88.6867 10.8486 88.6867 7.20798V6.88783C88.6867 3.27216 86.9597 0.714111 80.3155 0.714111H67.2917V19.0149H73.7677V13.5543H80.3155ZM73.7677 5.3874H79.716C81.4669 5.3874 81.9706 6.19921 81.9706 7.08481V7.13418C81.9706 8.09358 81.4669 8.88043 79.716 8.88043H73.7677V5.3874Z" fill="#333333"/>
<path d="M102.753 19.2857C112.539 19.2857 113.499 13.0621 113.499 9.44641V0.714111H107.07V9.39703C107.07 11.4879 106.423 13.8988 102.417 13.8988H102.321C98.2678 13.8988 97.5721 11.4879 97.5721 9.39703V0.714111H91.1443V9.44641C91.1443 13.0621 91.8396 19.2857 102.009 19.2857H102.753Z" fill="#333333"/>
<path d="M116.85 0.714111V19.0149H134V13.825H123.327V0.714111H116.85Z" fill="#333333"/>
</svg>
