<svg width="20" height="20" viewBox="0 0 20 20" fill="none" xmlns="http://www.w3.org/2000/svg">
<g id="Linear / Call / Call Chat" clip-path="url(#clip0_768_2873)">
<path id="Vector" d="M14.1666 9.99996C16.4678 9.99996 18.3333 8.13448 18.3333 5.83329C18.3333 3.53211 16.4678 1.66663 14.1666 1.66663C11.8654 1.66663 9.99992 3.53211 9.99992 5.83329C9.99992 6.49983 10.1564 7.12981 10.4347 7.68849C10.5086 7.83696 10.5333 8.00665 10.4904 8.16688L10.2422 9.0944C10.1345 9.49704 10.5028 9.8654 10.9055 9.75766L11.833 9.50949C11.9932 9.46662 12.1629 9.49124 12.3114 9.56518C12.8701 9.84345 13.5001 9.99996 14.1666 9.99996Z" stroke="#333333" stroke-width="1.5"/>
<path id="Vector_2" d="M11.7507 13.356L11.2069 12.8395H11.2069L11.7507 13.356ZM12.1302 12.9565L12.674 13.473L12.1302 12.9565ZM14.1441 12.677L13.77 13.327H13.77L14.1441 12.677ZM15.7362 13.5934L15.362 14.2434L15.7362 13.5934ZM16.1848 16.4654L16.7286 16.9819L16.1848 16.4654ZM15.001 17.7117L14.4572 17.1952L15.001 17.7117ZM13.897 18.3026L13.9706 19.049L13.897 18.3026ZM5.67955 14.5627L6.22334 14.0462L5.67955 14.5627ZM1.66915 6.63832L0.920232 6.67852L0.920232 6.67852L1.66915 6.63832ZM7.06468 7.9193L7.60847 8.43582L7.06468 7.9193ZM7.19528 5.57762L7.80768 5.14464V5.14464L7.19528 5.57762ZM6.14446 4.09139L5.53207 4.52437L5.53207 4.52437L6.14446 4.09139ZM3.55129 3.84058L4.09508 4.35709L4.09508 4.35709L3.55129 3.84058ZM2.24329 5.21765L1.6995 4.70114L1.6995 4.70114L2.24329 5.21765ZM8.38602 11.7133L8.92981 11.1968L8.38602 11.7133ZM12.2945 13.8726L12.674 13.473L11.5864 12.4399L11.2069 12.8395L12.2945 13.8726ZM13.77 13.327L15.362 14.2434L16.1103 12.9433L14.5182 12.027L13.77 13.327ZM15.641 15.9489L14.4572 17.1952L15.5448 18.2282L16.7286 16.9819L15.641 15.9489ZM13.8233 17.5562C12.6599 17.6711 9.57972 17.5798 6.22334 14.0462L5.13575 15.0792C8.85734 18.9973 12.4184 19.2022 13.9706 19.049L13.8233 17.5562ZM6.22334 14.0462C3.01466 10.668 2.48409 7.82802 2.41808 6.59812L0.920232 6.67852C1.00446 8.24782 1.67003 11.4305 5.13575 15.0792L6.22334 14.0462ZM7.36946 8.68745L7.60847 8.43582L6.52089 7.40279L6.28187 7.65442L7.36946 8.68745ZM7.80768 5.14464L6.75685 3.6584L5.53207 4.52437L6.58289 6.01061L7.80768 5.14464ZM3.0075 3.32406L1.6995 4.70114L2.78708 5.73417L4.09508 4.35709L3.0075 3.32406ZM6.82567 8.17094C6.28187 7.65442 6.28118 7.65515 6.28049 7.65588C6.28025 7.65613 6.27955 7.65688 6.27908 7.65738C6.27814 7.65838 6.27718 7.65941 6.2762 7.66046C6.27426 7.66255 6.27225 7.66473 6.2702 7.66699C6.26609 7.67151 6.26176 7.67636 6.25725 7.68155C6.24822 7.69193 6.23842 7.70367 6.22803 7.7168C6.20725 7.74306 6.18408 7.77491 6.15998 7.81257C6.11163 7.88812 6.06002 7.98634 6.01659 8.10841C5.9281 8.35707 5.88202 8.68072 5.94033 9.07864C6.05458 9.85844 6.56112 10.881 7.84222 12.2298L8.92981 11.1968C7.74841 9.95298 7.47477 9.20441 7.42448 8.86118C7.40051 8.69757 7.42606 8.62174 7.42978 8.61129C7.43244 8.60381 7.43208 8.60757 7.42345 8.62105C7.41921 8.62768 7.41301 8.63659 7.40425 8.64767C7.39986 8.65321 7.39483 8.6593 7.38906 8.66593C7.38618 8.66924 7.38311 8.67269 7.37985 8.67628C7.37822 8.67807 7.37654 8.6799 7.37481 8.68176C7.37394 8.68269 7.37306 8.68363 7.37217 8.68458C7.37173 8.68506 7.37105 8.68577 7.37083 8.68601C7.37015 8.68673 7.36946 8.68745 6.82567 8.17094ZM7.84222 12.2298C9.11883 13.5738 10.1007 14.122 10.8716 14.2472C11.2685 14.3116 11.595 14.2608 11.8464 14.1616C11.969 14.1133 12.0668 14.0562 12.141 14.0035C12.178 13.9773 12.2091 13.9522 12.2345 13.9299C12.2472 13.9187 12.2586 13.9083 12.2685 13.8986C12.2735 13.8938 12.2782 13.8892 12.2825 13.8849C12.2847 13.8827 12.2867 13.8806 12.2887 13.8785C12.2897 13.8775 12.2907 13.8765 12.2917 13.8755C12.2921 13.875 12.2928 13.8743 12.2931 13.874C12.2938 13.8733 12.2945 13.8726 11.7507 13.356C11.2069 12.8395 11.2076 12.8388 11.2083 12.8381C11.2085 12.8379 11.2092 12.8371 11.2096 12.8367C11.2105 12.8357 11.2114 12.8348 11.2123 12.8339C11.2141 12.8321 11.2158 12.8303 11.2175 12.8286C11.221 12.8251 11.2243 12.8218 11.2275 12.8187C11.2339 12.8126 11.2399 12.8071 11.2454 12.8023C11.2564 12.7926 11.2657 12.7854 11.2732 12.78C11.2885 12.7692 11.2965 12.7661 11.2961 12.7662C11.296 12.7663 11.284 12.7711 11.2572 12.7739C11.2302 12.7768 11.1829 12.7781 11.112 12.7666C10.8161 12.7185 10.1157 12.4453 8.92981 11.1968L7.84222 12.2298ZM6.75685 3.6584C5.87043 2.40467 4.08793 2.18657 3.0075 3.32406L4.09508 4.35709C4.47217 3.96009 5.14688 3.97957 5.53207 4.52437L6.75685 3.6584ZM2.41808 6.59812C2.40252 6.30824 2.52796 6.00697 2.78708 5.73417L1.6995 4.70114C1.23591 5.1892 0.877065 5.87426 0.920232 6.67852L2.41808 6.59812ZM14.4572 17.1952C14.2384 17.4256 14.0212 17.5367 13.8233 17.5562L13.9706 19.049C14.6318 18.9837 15.1617 18.6316 15.5448 18.2282L14.4572 17.1952ZM7.60847 8.43582C8.45829 7.54112 8.51567 6.146 7.80768 5.14464L6.58289 6.01061C6.90229 6.46236 6.84866 7.0577 6.52089 7.40279L7.60847 8.43582ZM15.362 14.2434C15.9784 14.5982 16.094 15.472 15.641 15.9489L16.7286 16.9819C17.8738 15.7763 17.5388 13.7655 16.1103 12.9433L15.362 14.2434ZM12.674 13.473C12.9545 13.1777 13.3915 13.1092 13.77 13.327L14.5182 12.027C13.554 11.472 12.3553 11.6305 11.5864 12.4399L12.674 13.473Z" fill="#333333"/>
</g>
<defs>
<clipPath id="clip0_768_2873">
<rect width="20" height="20" fill="white"/>
</clipPath>
</defs>
</svg>
