<svg width="24" height="24" viewBox="0 0 24 24" fill="none" xmlns="http://www.w3.org/2000/svg">
<g id="Component 8">
<path id="Shape" fill-rule="evenodd" clip-rule="evenodd" d="M18.7301 6.33013C19.023 6.03724 19.023 5.56237 18.7301 5.26947C18.4372 4.97658 17.9624 4.97658 17.6695 5.26947L11.9998 10.9391L6.33014 5.26948C6.03724 4.97658 5.56237 4.97658 5.26948 5.26948C4.97658 5.56237 4.97658 6.03724 5.26948 6.33014L10.9391 11.9998L5.26947 17.6695C4.97658 17.9624 4.97658 18.4372 5.26947 18.7301C5.56237 19.023 6.03724 19.023 6.33013 18.7301L11.9998 13.0605L17.6695 18.7301C17.9624 19.023 18.4372 19.023 18.7301 18.7301C19.023 18.4372 19.023 17.9624 18.7301 17.6695L13.0605 11.9998L18.7301 6.33013Z" fill="#333333"/>
</g>
</svg>
