<svg width="18" height="18" viewBox="0 0 18 18" fill="none" xmlns="http://www.w3.org/2000/svg">
<path d="M12.9375 2.25H9.5625C8.01169 2.25 6.75 3.51169 6.75 5.0625V8.4375C6.75 9.98831 8.01169 11.25 9.5625 11.25H12.9375C14.4883 11.25 15.75 9.98831 15.75 8.4375V5.0625C15.75 3.51169 14.4883 2.25 12.9375 2.25ZM14.625 8.4375C14.625 9.36788 13.8679 10.125 12.9375 10.125H9.5625C8.63212 10.125 7.875 9.36788 7.875 8.4375V5.0625C7.875 4.13213 8.63212 3.375 9.5625 3.375H12.9375C13.8679 3.375 14.625 4.13213 14.625 5.0625V8.4375ZM11.25 12.9375C11.25 14.4883 9.98831 15.75 8.4375 15.75H5.0625C3.51169 15.75 2.25 14.4883 2.25 12.9375V9.5625C2.25 8.01169 3.51169 6.75 5.0625 6.75C5.37356 6.75 5.625 7.002 5.625 7.3125C5.625 7.623 5.37356 7.875 5.0625 7.875C4.13213 7.875 3.375 8.63212 3.375 9.5625V12.9375C3.375 13.8679 4.13213 14.625 5.0625 14.625H8.4375C9.36788 14.625 10.125 13.8679 10.125 12.9375C10.125 12.627 10.3764 12.375 10.6875 12.375C10.9986 12.375 11.25 12.627 11.25 12.9375Z" fill="#333333"/>
</svg>
