<svg width="32" height="32" viewBox="0 0 32 32" fill="none" xmlns="http://www.w3.org/2000/svg">
<g id="Frame 33693">
<path d="M0 4C0 1.79086 1.79086 0 4 0H28C30.2091 0 32 1.79086 32 4V28C32 30.2091 30.2091 32 28 32H4C1.79086 32 0 30.2091 0 28V4Z" fill="#F2F4F6"/>
<path id="Vector" d="M16.487 7C15.0609 7 13.8783 8.19421 13.8783 9.6343V12.374L12 12.4091V15.1488L13.8783 15.1136V24H17.113V15.1136H19.7217L20 12.374H17.113C17.113 11.7769 17.113 11.1095 17.113 10.4773C17.113 10.0558 17.4261 9.73967 17.8435 9.73967H20V7H16.487Z" stroke="#333333" stroke-width="1.5" stroke-linejoin="round"/>
</g>
</svg>
