<svg width="22" height="21" viewBox="0 0 22 21" fill="none" xmlns="http://www.w3.org/2000/svg">
<g id="Home-2">
<path id="Rectangle 57" d="M10.2007 20.0002H11.802C14.8008 20.0002 16.3002 20.0002 17.3516 19.2363C17.6912 18.9896 17.9898 18.691 18.2366 18.3514C19.0005 17.2999 19.0005 15.8 19.0005 12.8002V11.4272C19.0005 9.93292 19.0005 9.18577 18.7505 8.51229C18.668 8.29003 18.5659 8.07553 18.4455 7.87135C18.0804 7.25266 17.5005 6.78151 16.3408 5.83921L11.0005 1.50024L5.66022 5.83921C4.50047 6.78151 3.92059 7.25266 3.55552 7.87135C3.43504 8.07553 3.33294 8.29003 3.25045 8.51229C3.00049 9.18577 3.00049 9.93292 3.00049 11.4272V12.8002C3.00049 15.8 3.00049 17.2999 3.76442 18.3514C4.01114 18.691 4.30977 18.9896 4.64935 19.2363C5.70081 20.0002 7.20079 20.0002 10.2007 20.0002Z" stroke="#333333" stroke-width="1.5" stroke-linecap="round"/>
<line id="Line 15" x1="0.8" y1="-0.8" x2="13.7173" y2="-0.8" transform="matrix(-0.757719 0.652581 -0.757719 -0.652581 11 0.000244141)" stroke="#333333" stroke-width="1.6" stroke-linecap="round"/>
<line id="Line 16" x1="0.8" y1="-0.8" x2="13.7173" y2="-0.8" transform="matrix(0.757719 0.652581 0.757719 -0.652581 11 0.000244141)" stroke="#333333" stroke-width="1.6" stroke-linecap="round"/>
<line id="Line 17" x1="8.75" y1="16.0923" x2="12.75" y2="16.0923" stroke="#333333" stroke-width="1.5" stroke-linecap="round"/>
</g>
</svg>
