<svg width="16" height="16" viewBox="0 0 16 16" fill="none" xmlns="http://www.w3.org/2000/svg">
<g id="moon_color">
<path id="Subtract" fill-rule="evenodd" clip-rule="evenodd" d="M6.34294 1.78979C6.2313 1.8937 6.12378 2.00388 6.02083 2.12031C4.19162 4.18899 4.49756 7.44772 6.70416 9.39887C8.91075 11.35 12.1824 11.2548 14.0116 9.18607C14.1146 9.06964 14.2108 8.94944 14.3002 8.82592C14.077 9.74254 13.6338 10.6198 12.9654 11.3757C10.7704 13.8581 6.97853 14.091 4.49611 11.896C2.01368 9.70095 1.78072 5.90911 3.97577 3.42669C4.64413 2.67082 5.46054 2.12351 6.34294 1.78979Z" fill="#FFD600"/>
<path id="Subtract_2" fill-rule="evenodd" clip-rule="evenodd" d="M6.34294 1.78979C6.2313 1.8937 6.12378 2.00388 6.02083 2.12031C4.19162 4.18899 4.49756 7.44772 6.70416 9.39887C8.91075 11.35 12.1824 11.2548 14.0116 9.18607C14.1146 9.06964 14.2108 8.94944 14.3002 8.82592C14.077 9.74254 13.6338 10.6198 12.9654 11.3757C10.7704 13.8581 6.97853 14.091 4.49611 11.896C2.01368 9.70095 1.78072 5.90911 3.97577 3.42668C4.64413 2.67082 5.46053 2.12351 6.34294 1.78979Z" stroke="#FFD600" stroke-width="1.5" stroke-linejoin="round"/>
</g>
</svg>
