<svg width="24" height="24" viewBox="0 0 24 24" fill="none" xmlns="http://www.w3.org/2000/svg">
<g id="icons/actions">
<path id="Shape" fill-rule="evenodd" clip-rule="evenodd" d="M20.7679 12.7498C21.1821 12.7498 21.5179 12.414 21.5179 11.9998C21.5179 11.5856 21.1821 11.2498 20.7679 11.2498L12.7498 11.2498L12.7498 3.23168C12.7498 2.81747 12.414 2.48168 11.9998 2.48168C11.5855 2.48168 11.2498 2.81747 11.2498 3.23168L11.2498 11.2498L3.23163 11.2498C2.81742 11.2498 2.48163 11.5856 2.48163 11.9998C2.48163 12.414 2.81742 12.7498 3.23163 12.7498L11.2498 12.7498L11.2498 20.7679C11.2498 21.1821 11.5855 21.5179 11.9998 21.5179C12.414 21.5179 12.7498 21.1821 12.7498 20.7679L12.7498 12.7498L20.7679 12.7498Z" fill="#333333"/>
</g>
</svg>
