<svg width="21" height="22" viewBox="0 0 21 22" fill="none" xmlns="http://www.w3.org/2000/svg">
<path d="M11.0005 1C13.3363 0.999999 14.0555 2.34721 14.207 3.64302C14.2794 4.26214 15.3994 4.93158 15.9794 4.70341C17.1316 4.25025 18.5676 4.22903 19.6607 6C20.7251 8.02485 19.6675 9.38032 18.587 10.1632C18.1201 10.5015 18.1201 11.4985 18.587 11.8368C19.6675 12.6197 20.7251 13.9751 19.6607 16C18.5676 17.771 17.1316 17.7497 15.9794 17.2966C15.3994 17.0684 14.2794 17.7379 14.207 18.357C14.0555 19.6528 13.3363 21 11.0005 21C8.6646 21 7.94541 19.6528 7.7939 18.357C7.72151 17.7379 6.60155 17.0684 6.02147 17.2966C4.86935 17.7497 3.43327 17.771 2.3402 16C1.39534 14.2025 2.12269 12.9325 3.05383 12.1223C3.51799 11.7184 3.44036 10.4663 2.93926 10.1093C1.90685 9.37371 1.11155 8.10049 2.3402 6C3.39249 4.20101 4.70894 4.09638 5.8074 4.48925C6.41096 4.70512 7.72038 3.97007 7.84006 3.34033C8.06709 2.14576 8.84632 1 11.0005 1Z" stroke="#A2A8B1" stroke-width="1.5"/>
<circle cx="11" cy="11" r="2.25" stroke="#A2A8B1" stroke-width="1.5"/>
</svg>
