<svg width="24" height="24" viewBox="0 0 24 24" fill="none" xmlns="http://www.w3.org/2000/svg">
<g id="icons/actions">
<path id="Vector" d="M8.27686 12.6606C7.49809 12.6606 6.73682 12.4297 6.0893 11.9971C5.44178 11.5644 4.9371 10.9494 4.63908 10.23C4.34106 9.51048 4.26308 8.71878 4.41501 7.95498C4.56694 7.19118 4.94195 6.48958 5.49262 5.93891C6.04329 5.38824 6.74489 5.01323 7.50869 4.8613C8.27249 4.70937 9.06419 4.78735 9.78367 5.08537C10.5032 5.38339 11.1181 5.88807 11.5508 6.53559C11.9834 7.18311 12.2144 7.94438 12.2144 8.72315C12.2132 9.76708 11.798 10.7679 11.0598 11.5061C10.3216 12.2443 9.32079 12.6595 8.27686 12.6606ZM8.27686 6.53565C7.84421 6.53565 7.42128 6.66394 7.06155 6.90431C6.70181 7.14467 6.42144 7.48631 6.25587 7.88603C6.0903 8.28574 6.04698 8.72557 6.13139 9.14991C6.21579 9.57424 6.42413 9.96401 6.73006 10.2699C7.03599 10.5759 7.42576 10.7842 7.8501 10.8686C8.27443 10.953 8.71426 10.9097 9.11398 10.7441C9.51369 10.5786 9.85533 10.2982 10.0957 9.93846C10.3361 9.57872 10.4644 9.15579 10.4644 8.72315C10.4644 8.14298 10.2339 7.58659 9.82365 7.17635C9.41342 6.76611 8.85702 6.53565 8.27686 6.53565ZM14.8394 21.4106V20.9731C14.8394 19.2327 14.148 17.5635 12.9172 16.3328C11.6865 15.102 10.0173 14.4106 8.27686 14.4106C6.53637 14.4106 4.86717 15.102 3.63647 16.3328C2.40576 17.5635 1.71436 19.2327 1.71436 20.9731L1.71436 21.4106C1.71436 21.6427 1.80654 21.8653 1.97064 22.0294C2.13473 22.1935 2.35729 22.2856 2.58936 22.2856C2.82142 22.2856 3.04398 22.1935 3.20807 22.0294C3.37217 21.8653 3.46436 21.6427 3.46436 21.4106V20.9731C3.46436 19.6968 3.97139 18.4727 4.8739 17.5702C5.77642 16.6677 7.0005 16.1606 8.27686 16.1606C9.55321 16.1606 10.7773 16.6677 11.6798 17.5702C12.5823 18.4727 13.0894 19.6968 13.0894 20.9731V21.4106C13.0894 21.6427 13.1815 21.8653 13.3456 22.0294C13.5097 22.1935 13.7323 22.2856 13.9644 22.2856C14.1964 22.2856 14.419 22.1935 14.5831 22.0294C14.7472 21.8653 14.8394 21.6427 14.8394 21.4106ZM22.7144 17.0356C22.7143 15.8532 22.372 14.6961 21.7288 13.704C21.0856 12.7118 20.169 11.927 19.0896 11.4444C18.0102 10.9617 16.8142 10.8018 15.6459 10.9839C14.4776 11.166 13.387 11.6824 12.5057 12.4708C12.4189 12.5471 12.3481 12.6398 12.2973 12.7437C12.2465 12.8475 12.2168 12.9604 12.2099 13.0757C12.203 13.1911 12.219 13.3067 12.257 13.4159C12.295 13.525 12.3543 13.6256 12.4314 13.7117C12.5085 13.7978 12.6019 13.8678 12.7062 13.9176C12.8105 13.9674 12.9237 13.9961 13.0391 14.0019C13.1545 14.0078 13.27 13.9907 13.3788 13.9517C13.4876 13.9126 13.5876 13.8524 13.673 13.7745C14.3025 13.2116 15.0815 12.8428 15.916 12.7128C16.7504 12.5829 17.6047 12.6972 18.3756 13.042C19.1465 13.3868 19.8012 13.9473 20.2605 14.656C20.7199 15.3647 20.9643 16.1911 20.9644 17.0356C20.9644 17.2677 21.0565 17.4903 21.2206 17.6544C21.3847 17.8185 21.6073 17.9106 21.8394 17.9106C22.0714 17.9106 22.294 17.8185 22.4581 17.6544C22.6222 17.4903 22.7144 17.2677 22.7144 17.0356ZM17.0269 9.16065C16.2481 9.16065 15.4868 8.92972 14.8393 8.49706C14.1918 8.0644 13.6871 7.44945 13.3891 6.72996C13.0911 6.01048 13.0131 5.21878 13.165 4.45498C13.3169 3.69118 13.692 2.98958 14.2426 2.43891C14.7933 1.88824 15.4949 1.51323 16.2587 1.3613C17.0225 1.20937 17.8142 1.28735 18.5337 1.58537C19.2532 1.88339 19.8681 2.38807 20.3008 3.03559C20.7334 3.68311 20.9644 4.44438 20.9644 5.22315C20.9632 6.26708 20.548 7.26793 19.8098 8.0061C19.0716 8.74427 18.0708 9.15949 17.0269 9.16065ZM17.0269 3.03565C16.5942 3.03565 16.1713 3.16394 15.8115 3.40431C15.4518 3.64467 15.1714 3.98631 15.0059 4.38603C14.8403 4.78574 14.797 5.22557 14.8814 5.64991C14.9658 6.07424 15.1741 6.46401 15.4801 6.76994C15.786 7.07587 16.1758 7.28421 16.6001 7.36861C17.0244 7.45302 17.4643 7.4097 17.864 7.24413C18.2637 7.07857 18.6053 6.79819 18.8457 6.43846C19.0861 6.07872 19.2144 5.65579 19.2144 5.22315C19.2144 4.64298 18.9839 4.08659 18.5737 3.67635C18.1634 3.26611 17.607 3.03565 17.0269 3.03565Z" fill="#333333"/>
</g>
</svg>
