<svg width="24" height="24" viewBox="0 0 24 24" fill="none" xmlns="http://www.w3.org/2000/svg">
<g id="Property 1=category, Property 2=airplane">
<path id="Vector 427" d="M9.09739 4.39392L10.9026 8.60608C11.1854 9.26595 10.7014 10 9.98346 10H7.30278C7.10535 10 6.91234 9.94156 6.74808 9.83205L4.25164 8.16776C4.08756 8.05837 3.89477 8 3.69757 8C2.93596 8 2.45454 8.81818 2.82441 9.48394L4.21359 11.9845C4.39031 12.3026 4.38029 12.6915 4.18743 13.0001L2.88284 15.0875C2.49852 15.7024 2.9406 16.5 3.66574 16.5C3.88172 16.5 4.09086 16.4243 4.25678 16.286L6.72187 14.2318C6.90158 14.082 7.12811 14 7.36205 14H10.023C10.7304 14 11.2142 14.7145 10.9514 15.3714L9.04856 20.1286C8.78581 20.7855 9.26957 21.5 9.97703 21.5H10.9338C11.2851 21.5 11.6106 21.3157 11.7913 21.0145L15.7087 14.4855C15.8894 14.1843 16.2149 14 16.5662 14H20C21.1046 14 22 13.1046 22 12C22 10.8954 21.1046 10 20 10H16.546C16.2057 10 15.8888 9.82698 15.7048 9.54076L11.7952 3.45924C11.6112 3.17302 11.2943 3 10.954 3H10.0165C9.29862 3 8.81459 3.73405 9.09739 4.39392Z" stroke="#333333" stroke-width="1.5" stroke-linecap="round" stroke-linejoin="round"/>
</g>
</svg>
