<svg width="24" height="24" viewBox="0 0 24 24" fill="none" xmlns="http://www.w3.org/2000/svg">
<g id="icons/merchants">
<path id="Vector 426" d="M5.5 10.7879V16.0001C5.5 16.3725 5.70699 16.7141 6.03715 16.8865L10.6614 19.3011C11.5035 19.7407 12.504 19.7556 13.3588 19.3412L18.4363 16.8794C18.7811 16.7122 19 16.3627 19 15.9796V10.4817M19 10.4817L13.2868 13.1059C12.472 13.4801 11.5326 13.4703 10.7258 13.0792L3.85587 9.7483C3.10423 9.38387 3.10423 8.3131 3.85587 7.94867L10.6912 4.63458C11.5177 4.23384 12.4823 4.23384 13.3088 4.63458L21 8.36364C21.405 8.56 21.405 9.13697 21 9.33333V9.33333M19 10.4817L21 9.33333M21 9.33333V13.697" stroke="#333333" stroke-width="1.5" stroke-linecap="round" stroke-linejoin="round"/>
</g>
</svg>
