<svg width="18" height="24" viewBox="0 0 18 24" fill="none" xmlns="http://www.w3.org/2000/svg">
<g id="Group 4073">
<path id="Ellipse 247" d="M9.00019 0.959961C4.75864 0.959961 1.32019 4.39841 1.32019 8.63996C1.32019 11.0653 2.44442 13.228 4.20019 14.6355C5.515 15.6895 5.16019 18.72 6.60019 18.72C6.9027 18.72 7.92852 18.72 9.00019 18.72" stroke="#333333" stroke-width="1.5"/>
<path id="Ellipse 248" d="M9.0003 0.959961C13.2418 0.959961 16.6803 4.39841 16.6803 8.63996C16.6803 11.0653 15.5561 13.228 13.8003 14.6355C12.4855 15.6895 12.8403 18.72 11.4003 18.72C11.0978 18.72 10.072 18.72 9.0003 18.72" stroke="#333333" stroke-width="1.5"/>
<path id="Vector 416" d="M6.12024 18.72V20.12C6.12024 20.6723 6.56795 21.12 7.12024 21.12H7.56024M11.8802 18.72V20.12C11.8802 20.6723 11.4325 21.12 10.8802 21.12H10.4402M7.56024 21.12V22.04C7.56024 22.5923 8.00795 23.04 8.56024 23.04H9.44024C9.99252 23.04 10.4402 22.5923 10.4402 22.04V21.12M7.56024 21.12H10.4402" stroke="#333333" stroke-width="1.5" stroke-linecap="round"/>
<path id="Vector 417" d="M4.20007 7.19984C4.36007 6.07984 5.35207 3.83984 8.04007 3.83984" stroke="#333333" stroke-width="1.5" stroke-linecap="round"/>
</g>
</svg>
