<svg width="24" height="16" viewBox="0 0 24 16" fill="none" xmlns="http://www.w3.org/2000/svg">
<g id="Group 4065">
<path id="Rectangle 1008" d="M9.72727 12.3929H9.28027L9.06759 12.786L8.85426 13.1804C8.16456 14.4555 6.83153 15.25 5.38189 15.25C2.98958 15.25 1.14705 13.1392 1.47029 10.7688L2.45318 3.56088C2.67277 1.95056 4.04815 0.75 5.67338 0.75H18.3266C19.9518 0.75 21.3272 1.95056 21.5468 3.56088L22.5748 11.0995C22.8742 13.295 21.1677 15.25 18.9519 15.25C17.508 15.25 16.1994 14.4003 15.6118 13.0814L15.5033 12.8377L15.3051 12.3929H14.8182H9.72727Z" stroke="#333333" stroke-width="1.5"/>
<path id="Rectangle 1009" d="M8 5V7.25V9.5" stroke="#333333" stroke-width="1.5" stroke-linecap="round"/>
<path id="Rectangle 1011" d="M10.25 7.25L8 7.25L5.75 7.25" stroke="#333333" stroke-width="1.5" stroke-linecap="round"/>
<circle id="Ellipse 227" cx="18" cy="5" r="1" fill="#333333"/>
<circle id="Ellipse 228" cx="16" cy="8" r="1" fill="#333333"/>
</g>
</svg>
