<svg width="24" height="13" viewBox="0 0 24 13" fill="none" xmlns="http://www.w3.org/2000/svg">
<g id="Group 4076">
<circle id="Ellipse 249" cx="2.75" cy="2.75" r="2" transform="matrix(-1 0 0 1 20.8 7.27502)" stroke="#333333" stroke-width="1.5"/>
<circle id="Ellipse 250" cx="2.75" cy="2.75" r="2" transform="matrix(-1 0 0 1 7.59998 7.27502)" stroke="#333333" stroke-width="1.5"/>
<path id="Vector 422" d="M20.25 10.025C20.4015 10.025 20.6783 10.025 20.9997 10.025C22.1043 10.025 23 9.12954 23 8.02497V7.40748C23 6.3916 22.2388 5.53707 21.2294 5.42216C20.4632 5.33492 19.5984 5.23725 18.9636 5.16778C18.3832 5.10427 17.8312 4.81985 17.4512 4.37656L15.3485 1.92339C14.9686 1.4801 14.4139 1.22498 13.83 1.22498H7.52912C6.88322 1.22498 6.27708 1.53691 5.90166 2.0625L4.09049 4.59813C3.8681 4.90948 3.56106 5.1505 3.20581 5.29261L2.25711 5.67209C1.49779 5.97581 0.999892 6.71123 0.999892 7.52904V8.03345C0.999892 8.89431 1.55075 9.65859 2.36744 9.93082L2.64989 10.025M15.85 10.025H7.05001" stroke="#333333" stroke-width="1.5" stroke-linecap="round" stroke-linejoin="round"/>
</g>
</svg>
