<svg width="24" height="22" viewBox="0 0 24 22" fill="none" xmlns="http://www.w3.org/2000/svg">
<g id="Group 4064">
<path id="Vector 400" d="M11.9582 21.0908L6.23097 16.4597L8.82188 13.8688C9.19844 13.4922 9.19844 12.8817 8.82188 12.5052V12.5052C8.44532 12.1286 7.8348 12.1286 7.45824 12.5052L4.86733 15.0961L8.27642 11.687C8.65298 11.3104 8.65298 10.6999 8.27643 10.3233V10.3233C7.89987 9.94678 7.28935 9.94678 6.91279 10.3233L3.5037 13.7324L7.7696 9.46653C8.12783 9.10829 8.13631 8.53015 7.78873 8.16156V8.16156C7.42639 7.77733 6.8182 7.76846 6.44482 8.14197L5.22372 9.36348M2.4905 12.0961L5.22372 9.36348M5.22372 9.36348C5.22372 9.36348 5.49645 8.5453 5.08104 8.14152V8.14152C4.70139 7.7725 4.0912 7.76736 3.71683 8.14173L1.39886 10.4597C0.853401 7.4597 0.5807 1.18712 6.5037 0.914246C9.55496 0.773672 11.4128 3.4597 11.9582 4.73243" stroke="#333333" stroke-width="1.5" stroke-linecap="round" stroke-linejoin="round"/>
<path id="Vector 401" d="M12.042 21.0908L17.7693 16.4597L15.1784 13.8688C14.8018 13.4922 14.8018 12.8817 15.1784 12.5052V12.5052C15.5549 12.1286 16.1654 12.1286 16.542 12.5052L19.1329 15.0961L15.7238 11.687C15.3473 11.3104 15.3473 10.6999 15.7238 10.3233V10.3233C16.1004 9.94678 16.7109 9.94678 17.0875 10.3233L20.4965 13.7324L16.2306 9.46653C15.8724 9.10829 15.8639 8.53015 16.2115 8.16156V8.16156C16.5739 7.77733 17.182 7.76846 17.5554 8.14197L18.7765 9.36348M21.5097 12.0961L18.7765 9.36348M18.7765 9.36348C18.7765 9.36348 18.5038 8.5453 18.9192 8.14152V8.14152C19.2989 7.7725 19.909 7.76736 20.2834 8.14173L22.6014 10.4597C23.1468 7.4597 23.4195 1.18712 17.4965 0.914246C14.4453 0.773672 12.5875 3.4597 12.042 4.73243" stroke="#333333" stroke-width="1.5" stroke-linecap="round" stroke-linejoin="round"/>
</g>
</svg>
