<svg width="24" height="24" viewBox="0 0 24 24" fill="none" xmlns="http://www.w3.org/2000/svg">
<path d="M11.2007 22.0002H12.802C15.8008 22.0002 17.3002 22.0002 18.3516 21.2363C18.6912 20.9896 18.9898 20.691 19.2366 20.3514C20.0005 19.2999 20.0005 17.8 20.0005 14.8002V13.4272C20.0005 11.9329 20.0005 11.1858 19.7505 10.5123C19.668 10.29 19.5659 10.0755 19.4455 9.87135C19.0804 9.25266 18.5005 8.78151 17.3408 7.83921L12.0005 3.50024L6.66022 7.83921C5.50047 8.78151 4.92059 9.25266 4.55552 9.87135C4.43504 10.0755 4.33294 10.29 4.25045 10.5123C4.00049 11.1858 4.00049 11.9329 4.00049 13.4272V14.8002C4.00049 17.8 4.00049 19.2999 4.76442 20.3514C5.01114 20.691 5.30977 20.9896 5.64935 21.2363C6.70081 22.0002 8.20079 22.0002 11.2007 22.0002Z" stroke="#333333" stroke-width="1.5" stroke-linecap="round"/>
<line x1="0.8" y1="-0.8" x2="13.7173" y2="-0.8" transform="matrix(-0.757719 0.652581 -0.757719 -0.652581 12 2.00024)" stroke="#333333" stroke-width="1.6" stroke-linecap="round"/>
<line x1="0.8" y1="-0.8" x2="13.7173" y2="-0.8" transform="matrix(0.757719 0.652581 0.757719 -0.652581 12 2.00024)" stroke="#333333" stroke-width="1.6" stroke-linecap="round"/>
<path d="M13.6579 13.9827V9.48267L8.5 14.3288H10.7105V18.4827L15.5 13.9827H13.6579Z" stroke="#333333" stroke-width="1.5" stroke-linejoin="round"/>
</svg>
