<svg width="22" height="22" viewBox="0 0 22 22" fill="none" xmlns="http://www.w3.org/2000/svg">
<path d="M17 11H11" stroke="#333333" stroke-width="1.5" stroke-linecap="round" stroke-linejoin="round"/>
<path d="M7.63903 9.77709C7.27432 10.081 7.03595 10.2804 6.86767 10.4456C6.70367 10.6065 6.66244 10.6826 6.6478 10.7188C6.57483 10.8992 6.57483 11.1008 6.6478 11.2812C6.66244 11.3174 6.70367 11.3935 6.86767 11.5544C7.03595 11.7196 7.27432 11.919 7.63903 12.2229C8.23642 12.7207 8.64759 13.0625 8.97015 13.288C9.30502 13.5221 9.42923 13.5446 9.4558 13.5461C9.7091 13.5611 9.95279 13.447 10.1035 13.2428C10.1193 13.2214 10.1815 13.1115 10.2161 12.7044C10.2494 12.3123 10.25 11.7776 10.25 11C10.25 10.2224 10.2494 9.68769 10.2161 9.29556C10.1815 8.88846 10.1193 8.77863 10.1035 8.75722C9.95279 8.55305 9.7091 8.43891 9.4558 8.45387C9.42923 8.45543 9.30502 8.47794 8.97015 8.71201C8.64759 8.93747 8.23642 9.27926 7.63903 9.77709Z" stroke="#333333" stroke-width="1.5"/>
<rect width="20" height="20" rx="6" transform="matrix(-1 0 0 1 21 1)" stroke="#333333" stroke-width="1.5"/>
</svg>
